<?xml version="1.0" standalone="no"?>
<!DOCTYPE svg PUBLIC "-//W3C//DTD SVG 20010904//EN"
 "http://www.w3.org/TR/2001/REC-SVG-20010904/DTD/svg10.dtd">
<svg version="1.0" xmlns="http://www.w3.org/2000/svg"
 width="327.000000pt" height="327.000000pt" viewBox="0 0 327.000000 327.000000"
 preserveAspectRatio="xMidYMid meet">
<metadata>
Created by potrace 1.11, written by Peter Selinger 2001-2013
</metadata>
<g transform="translate(0.000000,327.000000) scale(0.100000,-0.100000)"
fill="#000000" stroke="none">
<path d="M563 3249 c-73 -28 -150 -100 -184 -174 l-29 -60 0 -1508 0 -1507
1158 2 1157 3 50 25 c74 36 148 114 173 183 l22 58 0 1499 0 1500 -1147 -1
c-1123 0 -1149 0 -1200 -20z m1483 -137 c10 -7 34 -65 34 -83 0 -5 -29 -9 -64
-9 l-63 0 -21 50 -21 50 62 0 c34 0 67 -4 73 -8z m-456 -113 c22 -28 40 -54
40 -57 0 -4 -24 -22 -53 -39 l-52 -33 -47 53 c-26 28 -48 55 -48 59 0 7 100
67 112 68 4 0 26 -23 48 -51z m943 -57 c33 -24 47 -41 47 -57 0 -24 -1 -24
-52 11 -29 19 -56 34 -60 34 -5 0 -8 14 -8 31 0 34 -2 34 73 -19z m-273 1
c141 -28 270 -90 393 -190 68 -56 77 -75 54 -106 -11 -16 -18 -15 -85 18 -88
44 -206 75 -282 75 -94 0 -160 -17 -258 -66 -192 -96 -325 -291 -401 -585 -41
-161 -55 -273 -48 -404 10 -189 76 -502 147 -695 l29 -80 -534 0 -534 0 5 68
c20 269 52 496 94 663 127 509 411 985 700 1171 215 139 458 184 720 131z
m-1082 -313 c17 -13 32 -27 32 -32 0 -4 -17 -32 -37 -60 -20 -29 -38 -54 -39
-56 -1 -2 -34 18 -73 44 l-71 47 18 29 c9 16 30 45 46 64 l28 35 32 -24 c17
-13 46 -34 64 -47z m1331 34 c21 -5 31 -12 31 -25 0 -16 -8 -19 -45 -19 -41 0
-45 2 -45 25 0 27 8 29 59 19z m-299 -57 c7 -21 10 -39 8 -40 -1 -2 -19 -10
-38 -18 l-35 -16 -22 48 -21 48 41 14 c23 8 45 12 48 8 4 -3 12 -23 19 -44z
m-243 -272 l-24 -36 -37 51 c-20 27 -36 54 -36 59 0 5 12 23 26 41 l26 31 35
-55 34 -55 -24 -36z m-1119 -235 c29 -13 51 -28 49 -34 -2 -6 -14 -41 -26 -78
-13 -38 -26 -68 -29 -68 -12 0 -147 53 -156 61 -5 4 3 42 19 88 l28 80 31 -13
c17 -7 55 -23 84 -36z m997 -88 c-12 -63 -16 -63 -72 -12 l-52 47 16 54 16 53
49 -53 c47 -48 50 -54 43 -89z m-37 -322 c15 -10 25 -32 31 -65 5 -27 8 -51 7
-52 -1 -1 -35 13 -76 32 l-75 34 -3 61 -3 61 49 -28 c27 -15 58 -35 70 -43z
m-1177 -246 c50 -9 89 -21 89 -28 -1 -20 -38 -167 -43 -173 -6 -6 -187 13
-194 21 -4 4 28 144 42 184 5 15 0 15 106 -4z m1218 -201 l84 -16 24 -55 c13
-30 22 -57 19 -59 -2 -3 -43 -2 -90 2 -65 6 -86 11 -91 24 -23 56 -43 121 -37
121 4 0 45 -7 91 -17z m-901 -517 l37 -34 0 -86 c0 -80 -2 -86 -29 -115 -17
-17 -35 -31 -42 -31 -7 0 -16 -4 -19 -10 -5 -8 14 -37 98 -147 7 -10 -7 -13
-64 -13 l-74 0 -50 68 -50 67 -3 -67 -3 -68 -64 0 -65 0 0 235 0 235 145 0
145 0 38 -34z m490 14 c18 -11 37 -32 42 -46 6 -14 10 -111 10 -215 l0 -189
-60 0 -60 0 0 50 0 50 -60 0 -60 0 0 -50 0 -50 -60 0 -60 0 0 193 c0 173 2
195 19 221 31 46 57 55 161 56 78 0 101 -4 128 -20z m322 -215 l0 -235 -60 0
-60 0 0 235 0 235 60 0 60 0 0 -235z m262 63 l3 -173 93 -3 92 -3 0 -59 0 -60
-155 0 -155 0 0 235 0 235 60 0 60 0 2 -172z m608 117 l0 -55 -105 0 -105 0 0
-30 0 -30 79 0 c86 0 118 -15 146 -70 20 -39 19 -117 -3 -160 -28 -57 -67 -70
-214 -70 l-128 0 0 60 0 60 120 0 120 0 0 30 0 30 -77 0 c-61 0 -85 5 -111 20
-85 52 -79 212 9 257 15 8 69 13 147 13 l122 0 0 -55z"/>
<path d="M750 590 l0 -50 60 0 60 0 0 50 0 50 -60 0 -60 0 0 -50z"/>
<path d="M1250 575 l0 -65 60 0 60 0 0 65 0 65 -60 0 -60 0 0 -65z"/>
</g>
</svg>
